<svg id="Ebene_1" data-name="Ebene 1" xmlns="http://www.w3.org/2000/svg" viewBox="0 0 220 42"><defs><style>.cls-1{fill:#fff;}</style></defs><title>whitemip-software-logo</title><path class="cls-1" d="M80.21,27.17h8.9c3.08,0,4.34-1.11,4.34-3.37,0-5.31-13.06-5.09-13.06-12.8,0-4.24,3-6.54,7.13-6.54h8.27V7.73H87a2.85,2.85,0,0,0-3.15,3.08c0,4.79,13.06,4.79,13.06,12.69,0,4.16-2.6,6.94-7.2,6.94H80.21Z"/><path class="cls-1" d="M108.19,12.26a9.13,9.13,0,0,1,9.24,9.27,9.25,9.25,0,1,1-18.49,0A9.13,9.13,0,0,1,108.19,12.26Zm0,15.43c3.37,0,5.82-2.52,5.82-6.16s-2.45-6.16-5.82-6.16-5.83,2.53-5.83,6.16S104.81,27.69,108.19,27.69Z"/><path class="cls-1" d="M120.43,30.44V11c0-4.05,2.63-6.5,6.31-6.5h2.74V7.58h-2.3c-2.15,0-3.48,1-3.48,3.3v1.75H129v3.12H123.7V30.44Z"/><path class="cls-1" d="M140.65,15.75h-6.38V25.1c0,1.67.78,2.22,2.45,2.22h3.93v3.12h-4.38c-3.34,0-5.27-2.23-5.27-5.75V8.17h3.27v4.46h6.38Z"/><path class="cls-1" d="M166.15,12.63v12.1a6.47,6.47,0,0,1-11.58,3.56A6.47,6.47,0,0,1,143,24.73V12.63h3.26V24c0,2.27,1.27,3.71,3.2,3.71,2.11,0,3.48-1.18,3.48-4.23V12.63h3.27V23.46c0,3.05,1.37,4.23,3.49,4.23,1.93,0,3.19-1.44,3.19-3.71V12.63Z"/><path class="cls-1" d="M183.84,30.44v-10c0-3.34-2.82-5.05-5.79-5.05-3.59,0-5.86,2.86-5.86,6.24A5.87,5.87,0,0,0,178,27.69a5.78,5.78,0,0,0,4.49-2.44V29.1a7.25,7.25,0,0,1-4.83,1.71c-5.12,0-8.75-4.23-8.75-9.46s3.48-9.09,9.2-9.09c5.49,0,9,3.34,9,8.46v9.72Z"/><path class="cls-1" d="M190.22,12.63h3.12v2h.08a5.11,5.11,0,0,1,4.82-2.41H199v3.11h-.48c-3.15,0-5,1.93-5,6.76v8.31h-3.27Z"/><path class="cls-1" d="M205.85,24.58,204.51,22l8.8-4.9a5,5,0,0,0-4.05-1.71c-3.38,0-5.83,2.53-5.83,6.16s2.45,6.16,5.83,6.16c3.86,0,5.31-2.3,6-5.56l3.3.41a9,9,0,0,1-9.28,8.27A9.13,9.13,0,0,1,200,21.53a9.13,9.13,0,0,1,9.24-9.27c4.16,0,6.94,2.19,8.61,5.64Z"/><path class="cls-1" d="M4.69,30.75V18.61c0-3.36,3-6.11,6.91-6.11A7,7,0,0,1,17.22,15a6.93,6.93,0,0,1,5.61-2.53c3.94,0,6.91,2.75,6.91,6.11V30.75H26.21V19.35c0-2.27-1.37-3.72-3.46-3.72-2.28,0-3.77,1.19-3.77,4.24V30.75H15.45V19.87c0-3.05-1.49-4.24-3.77-4.24-2.09,0-3.45,1.45-3.45,3.72v11.4Z"/><ellipse class="cls-1" cx="38.97" cy="8.89" rx="2.13" ry="1.97"/><rect class="cls-1" x="37.2" y="12.87" width="3.53" height="17.88"/><path class="cls-1" d="M47.84,38.79V22.33c0-5.88,4-9.83,9.71-9.83,6.26,0,10,4.47,10,9.76a9.12,9.12,0,0,1-9.27,8.86,11.43,11.43,0,0,1-5.46-1.27V26.43A10,10,0,0,0,57.63,28C61.44,28,64,25.53,64,21.85a6.06,6.06,0,0,0-6.42-6.22c-3.37,0-6.18,2.38-6.18,7.3V38.79Z"/></svg>